<svg width="296" height="288" viewBox="0 0 296 288" fill="none"
    xmlns="http://www.w3.org/2000/svg">
    <path d="M198.718 230.725C254.576 204.641 283.272 145.813 261.428 98.9013C239.584 51.9894 176.139 36.1899 120.282 62.2744C64.424 88.3589 35.728 147.187 57.5718 194.099C79.4156 241.01 142.861 256.81 198.718 230.725Z" stroke="black" stroke-width="5" />
    <path d="M1.51241 171.715L8.1255 117.778C8.96078 110.965 15.1604 106.122 21.9728 106.959C28.7851 107.797 33.6305 113.999 32.7952 120.811L26.1821 174.749C25.3468 181.561 19.1472 186.405 12.3348 185.567C5.5225 184.73 0.677126 178.528 1.51241 171.715Z" fill="#07EE2D" stroke="#07EE2D" />
    <path d="M55.2665 179.813L12.2991 125.717C7.6995 119.927 8.65995 111.497 14.4444 106.889C20.2288 102.281 28.6468 103.24 33.2464 109.031L76.2138 163.127C80.8134 168.917 79.8529 177.347 74.0685 181.955C68.2841 186.563 59.8661 185.604 55.2665 179.813Z" fill="#07EE2D" stroke="#07EE2D" />
    <path d="M53.502 170.632L59.901 114.388C60.7475 106.948 67.4644 101.605 74.9037 102.454C82.343 103.303 87.6877 110.022 86.8413 117.461L80.4422 173.706C79.5958 181.146 72.8789 186.488 65.4396 185.64C58.0002 184.791 52.6556 178.072 53.502 170.632Z" fill="#07EE2D" stroke="#07EE2D" />
    <path d="M102.983 141.768H107.442V155.465C107.442 157.003 107.074 158.348 106.34 159.502C105.612 160.655 104.593 161.555 103.281 162.2C101.97 162.839 100.442 163.158 98.6985 163.158C96.9478 163.158 95.4168 162.839 94.1054 162.2C92.7941 161.555 91.7746 160.655 91.0469 159.502C90.3191 158.348 89.9552 157.003 89.9552 155.465V141.768H94.4144V155.084C94.4144 155.887 94.5895 156.601 94.9396 157.226C95.2966 157.851 95.7978 158.342 96.4432 158.699C97.0885 159.056 97.8403 159.234 98.6985 159.234C99.5635 159.234 100.315 159.056 100.954 158.699C101.599 158.342 102.097 157.851 102.447 157.226C102.804 156.601 102.983 155.887 102.983 155.084V141.768ZM110.307 145.445V141.768H127.629V145.445H121.172V162.859H116.764V145.445H110.307ZM130.482 162.859V141.768H138.803C140.395 141.768 141.755 142.053 142.881 142.623C144.014 143.186 144.875 143.986 145.466 145.022C146.063 146.052 146.362 147.264 146.362 148.658C146.362 150.058 146.059 151.263 145.455 152.272C144.851 153.275 143.976 154.044 142.829 154.579C141.69 155.115 140.31 155.383 138.689 155.383H133.118V151.799H137.968C138.82 151.799 139.527 151.682 140.09 151.449C140.653 151.215 141.072 150.865 141.346 150.398C141.628 149.931 141.769 149.351 141.769 148.658C141.769 147.957 141.628 147.367 141.346 146.886C141.072 146.406 140.649 146.042 140.08 145.795C139.517 145.541 138.806 145.414 137.948 145.414H134.941V162.859H130.482ZM141.872 153.261L147.113 162.859H142.191L137.062 153.261H141.872ZM153.972 141.768V162.859H149.513V141.768H153.972ZM169.082 147.834C169 147.003 168.646 146.358 168.021 145.898C167.397 145.438 166.549 145.208 165.478 145.208C164.75 145.208 164.136 145.311 163.634 145.517C163.133 145.716 162.749 145.994 162.481 146.351C162.22 146.708 162.09 147.113 162.09 147.566C162.076 147.944 162.155 148.273 162.327 148.555C162.505 148.836 162.749 149.08 163.058 149.286C163.367 149.485 163.724 149.66 164.129 149.811C164.534 149.955 164.966 150.079 165.426 150.182L167.321 150.635C168.241 150.841 169.086 151.116 169.855 151.459C170.624 151.802 171.289 152.224 171.852 152.726C172.415 153.227 172.851 153.817 173.16 154.497C173.476 155.177 173.637 155.956 173.644 156.835C173.637 158.125 173.308 159.244 172.656 160.192C172.01 161.132 171.077 161.864 169.855 162.385C168.639 162.9 167.174 163.158 165.457 163.158C163.755 163.158 162.272 162.897 161.008 162.375C159.752 161.853 158.77 161.081 158.063 160.058C157.363 159.028 156.995 157.755 156.961 156.237H161.276C161.324 156.944 161.527 157.535 161.884 158.009C162.248 158.475 162.732 158.829 163.336 159.069C163.947 159.303 164.637 159.42 165.406 159.42C166.161 159.42 166.817 159.31 167.373 159.09C167.936 158.87 168.372 158.565 168.681 158.173C168.99 157.782 169.144 157.332 169.144 156.824C169.144 156.351 169.003 155.952 168.722 155.63C168.447 155.307 168.042 155.032 167.507 154.806C166.978 154.579 166.329 154.373 165.56 154.188L163.264 153.611C161.485 153.179 160.081 152.502 159.052 151.582C158.022 150.663 157.51 149.423 157.517 147.865C157.51 146.588 157.85 145.472 158.537 144.518C159.23 143.564 160.181 142.819 161.389 142.283C162.598 141.748 163.971 141.48 165.509 141.48C167.074 141.48 168.44 141.748 169.607 142.283C170.781 142.819 171.695 143.564 172.347 144.518C172.999 145.472 173.335 146.578 173.356 147.834H169.082ZM179.798 162.859H175.019L182.3 141.768H188.047L195.317 162.859H190.539L185.256 146.588H185.091L179.798 162.859ZM179.499 154.569H190.786V158.05H179.499V154.569ZM197.856 162.859V141.768H206.3C207.852 141.768 209.146 141.998 210.183 142.458C211.219 142.918 211.999 143.557 212.52 144.374C213.042 145.184 213.303 146.118 213.303 147.175C213.303 147.999 213.138 148.723 212.809 149.348C212.479 149.966 212.026 150.474 211.449 150.872C210.88 151.263 210.227 151.541 209.493 151.706V151.912C210.296 151.946 211.048 152.173 211.748 152.592C212.455 153.011 213.028 153.598 213.468 154.353C213.907 155.101 214.127 155.994 214.127 157.03C214.127 158.149 213.849 159.148 213.293 160.027C212.744 160.899 211.93 161.589 210.852 162.097C209.774 162.605 208.446 162.859 206.867 162.859H197.856ZM202.315 159.214H205.95C207.193 159.214 208.099 158.977 208.669 158.503C209.239 158.022 209.524 157.384 209.524 156.587C209.524 156.004 209.383 155.489 209.101 155.043C208.82 154.596 208.418 154.246 207.896 153.992C207.382 153.738 206.767 153.611 206.053 153.611H202.315V159.214ZM202.315 150.594H205.621C206.232 150.594 206.774 150.487 207.248 150.275C207.728 150.055 208.106 149.746 208.38 149.348C208.662 148.95 208.803 148.472 208.803 147.916C208.803 147.154 208.532 146.54 207.989 146.073C207.454 145.606 206.692 145.373 205.703 145.373H202.315V150.594ZM236.41 152.314C236.41 154.614 235.974 156.57 235.102 158.184C234.237 159.797 233.056 161.029 231.559 161.881C230.07 162.725 228.394 163.147 226.534 163.147C224.66 163.147 222.977 162.722 221.488 161.87C219.998 161.019 218.82 159.787 217.955 158.173C217.09 156.56 216.658 154.607 216.658 152.314C216.658 150.014 217.09 148.057 217.955 146.444C218.82 144.83 219.998 143.601 221.488 142.757C222.977 141.906 224.66 141.48 226.534 141.48C228.394 141.48 230.07 141.906 231.559 142.757C233.056 143.601 234.237 144.83 235.102 146.444C235.974 148.057 236.41 150.014 236.41 152.314ZM231.889 152.314C231.889 150.824 231.666 149.567 231.22 148.544C230.78 147.522 230.159 146.746 229.356 146.217C228.552 145.688 227.612 145.424 226.534 145.424C225.456 145.424 224.515 145.688 223.712 146.217C222.909 146.746 222.284 147.522 221.838 148.544C221.398 149.567 221.179 150.824 221.179 152.314C221.179 153.803 221.398 155.06 221.838 156.083C222.284 157.106 222.909 157.882 223.712 158.41C224.515 158.939 225.456 159.203 226.534 159.203C227.612 159.203 228.552 158.939 229.356 158.41C230.159 157.882 230.78 157.106 231.22 156.083C231.666 155.06 231.889 153.803 231.889 152.314ZM239.713 162.859V141.768H248.034C249.627 141.768 250.986 142.053 252.112 142.623C253.245 143.186 254.107 143.986 254.697 145.022C255.294 146.052 255.593 147.264 255.593 148.658C255.593 150.058 255.291 151.263 254.687 152.272C254.083 153.275 253.207 154.044 252.061 154.579C250.921 155.115 249.541 155.383 247.921 155.383H242.349V151.799H247.2C248.051 151.799 248.758 151.682 249.321 151.449C249.884 151.215 250.303 150.865 250.578 150.398C250.859 149.931 251 149.351 251 148.658C251 147.957 250.859 147.367 250.578 146.886C250.303 146.406 249.881 146.042 249.311 145.795C248.748 145.541 248.038 145.414 247.179 145.414H244.172V162.859H239.713ZM251.103 153.261L256.345 162.859H251.422L246.294 153.261H251.103Z" fill="#7AE67D" />
</svg>
