<svg width="139" height="135" viewBox="0 0 139 135" fill="none"
    xmlns="http://www.w3.org/2000/svg">
    <path d="M93.8784 109.356C120.539 96.9283 134.634 68.6662 123.967 45.7996C113.301 22.933 82.5829 15.5603 55.9223 27.9879C29.2618 40.4155 15.1665 68.6775 25.8332 91.5441C36.4999 114.411 67.2178 121.783 93.8784 109.356Z" stroke="black" stroke-width="5"/>
    <path d="M0.71146 80.4814L3.81445 55.2186C4.20738 52.0195 7.11925 49.7445 10.3183 50.1372C13.5173 50.5299 15.7921 53.4415 15.3992 56.6405L12.2962 81.9033C11.9033 85.1023 8.99142 87.3773 5.79238 86.9847C2.59334 86.592 0.318532 83.6804 0.71146 80.4814Z" fill="#07EE2D" stroke="#07EE2D"/>
    <path d="M25.9513 84.2853L5.7772 58.932C3.61635 56.2165 4.06667 52.2641 6.783 50.1042C9.49934 47.9443 13.4531 48.3948 15.6139 51.1103L35.788 76.4636C37.9488 79.1792 37.4985 83.1316 34.7822 85.2915C32.0658 87.4514 28.1121 87.0009 25.9513 84.2853Z" fill="#07EE2D" stroke="#07EE2D"/>
    <path d="M25.1255 79.9727L28.1279 53.6303C28.5261 50.1368 31.6809 47.6274 35.1744 48.0253C38.6678 48.4232 41.1771 51.5777 40.7789 55.0712L37.7765 81.4136C37.3783 84.907 34.2235 87.4165 30.7301 87.0186C27.2366 86.6207 24.7274 83.4662 25.1255 79.9727Z" fill="#07EE2D" stroke="#07EE2D"/>
    <path d="M48.0433 66.7607H50.0422V72.9006C50.0422 73.59 49.8775 74.1932 49.5482 74.7102C49.222 75.2273 48.765 75.6305 48.1771 75.9198C47.5893 76.206 46.9045 76.3491 46.1228 76.3491C45.338 76.3491 44.6517 76.206 44.0639 75.9198C43.476 75.6305 43.019 75.2273 42.6928 74.7102C42.3665 74.1932 42.2034 73.59 42.2034 72.9006V66.7607H44.2023V72.7298C44.2023 73.0899 44.2808 73.4099 44.4378 73.69C44.5978 73.9701 44.8225 74.1901 45.1118 74.3502C45.4011 74.5102 45.7381 74.5902 46.1228 74.5902C46.5106 74.5902 46.8476 74.5102 47.1338 74.3502C47.4231 74.1901 47.6462 73.9701 47.8032 73.69C47.9632 73.4099 48.0433 73.0899 48.0433 72.7298V66.7607ZM51.3267 68.4087V66.7607H59.0916V68.4087H56.1971V76.2152H54.2213V68.4087H51.3267ZM60.3704 76.2152V66.7607H64.1005C64.8145 66.7607 65.4239 66.8884 65.9286 67.1438C66.4365 67.3962 66.8227 67.7547 67.0874 68.2195C67.3551 68.6811 67.489 69.2243 67.489 69.8491C67.489 70.4769 67.3536 71.0171 67.0828 71.4695C66.8119 71.9188 66.4195 72.2635 65.9056 72.5036C65.3947 72.7436 64.7761 72.8636 64.0497 72.8636H61.5522V71.2571H63.7266C64.1082 71.2571 64.4252 71.2048 64.6776 71.1002C64.9299 70.9955 65.1177 70.8386 65.2408 70.6293C65.367 70.42 65.4301 70.1599 65.4301 69.8491C65.4301 69.5352 65.367 69.2705 65.2408 69.0551C65.1177 68.8396 64.9284 68.6765 64.673 68.5657C64.4206 68.4518 64.1021 68.3949 63.7174 68.3949H62.3693V76.2152H60.3704ZM65.4762 71.9127L67.826 76.2152H65.6193L63.3203 71.9127H65.4762ZM70.9006 66.7607V76.2152H68.9017V66.7607H70.9006ZM77.6741 69.4798C77.6372 69.1074 77.4787 68.8181 77.1986 68.6119C76.9186 68.4057 76.5385 68.3026 76.0583 68.3026C75.7321 68.3026 75.4567 68.3487 75.232 68.4411C75.0073 68.5303 74.835 68.655 74.715 68.815C74.598 68.975 74.5395 69.1566 74.5395 69.3597C74.5334 69.529 74.5688 69.6767 74.6457 69.8029C74.7257 69.9291 74.835 70.0384 74.9735 70.1307C75.112 70.2199 75.272 70.2984 75.4536 70.3661C75.6352 70.4308 75.8291 70.4862 76.0353 70.5323L76.8847 70.7355C77.2971 70.8278 77.6757 70.9509 78.0204 71.1048C78.365 71.2587 78.6636 71.4479 78.9159 71.6726C79.1683 71.8973 79.3637 72.1619 79.5022 72.4666C79.6438 72.7713 79.7161 73.1206 79.7192 73.5146C79.7161 74.0932 79.5684 74.5948 79.276 75.0195C78.9867 75.4412 78.5682 75.769 78.0204 76.0029C77.4756 76.2337 76.8185 76.3491 76.0491 76.3491C75.2859 76.3491 74.6211 76.2321 74.0548 75.9982C73.4916 75.7643 73.0515 75.4181 72.7345 74.9595C72.4206 74.4979 72.2559 73.927 72.2405 73.2468H74.1748C74.1964 73.5638 74.2872 73.8285 74.4472 74.0408C74.6103 74.2501 74.8273 74.4086 75.0981 74.5163C75.372 74.621 75.6813 74.6733 76.026 74.6733C76.3646 74.6733 76.6585 74.6241 76.9078 74.5256C77.1601 74.4271 77.3556 74.2901 77.4941 74.1147C77.6326 73.9393 77.7018 73.7377 77.7018 73.51C77.7018 73.2976 77.6387 73.1191 77.5125 72.9744C77.3894 72.8298 77.2079 72.7067 76.9678 72.6051C76.7308 72.5036 76.44 72.4112 76.0953 72.3281L75.0658 72.0696C74.2687 71.8757 73.6393 71.5726 73.1777 71.1602C72.716 70.7478 72.4867 70.1922 72.4898 69.4936C72.4867 68.9212 72.6391 68.4211 72.9468 67.9933C73.2577 67.5655 73.6839 67.2315 74.2256 66.9915C74.7673 66.7514 75.3828 66.6314 76.0722 66.6314C76.7739 66.6314 77.3864 66.7514 77.9096 66.9915C78.4358 67.2315 78.8452 67.5655 79.1375 67.9933C79.4299 68.4211 79.5807 68.9166 79.59 69.4798H77.6741ZM82.4776 76.2152H80.3355L83.5994 66.7607H86.1754L89.4346 76.2152H87.2925L84.9243 68.9212H84.8504L82.4776 76.2152ZM82.3437 72.4989H87.4033V74.0593H82.3437V72.4989ZM90.5726 76.2152V66.7607H94.3581C95.0536 66.7607 95.6338 66.8638 96.0985 67.07C96.5632 67.2762 96.9125 67.5624 97.1464 67.9286C97.3803 68.2918 97.4973 68.7104 97.4973 69.1843C97.4973 69.5536 97.4234 69.8783 97.2757 70.1584C97.128 70.4354 96.9248 70.6631 96.6663 70.8416C96.4109 71.0171 96.1185 71.1417 95.7892 71.2156V71.3079C96.1493 71.3233 96.4863 71.4248 96.8002 71.6126C97.1172 71.8003 97.3742 72.0635 97.5711 72.402C97.7681 72.7375 97.8666 73.1376 97.8666 73.6023C97.8666 74.1039 97.7419 74.5517 97.4927 74.9457C97.2464 75.3365 96.8817 75.6458 96.3985 75.8736C95.9154 76.1013 95.3198 76.2152 94.612 76.2152H90.5726ZM92.5715 74.581H94.2011C94.7582 74.581 95.1644 74.4748 95.4199 74.2624C95.6753 74.047 95.803 73.7608 95.803 73.4038C95.803 73.1422 95.7399 72.9114 95.6137 72.7113C95.4876 72.5113 95.3075 72.3543 95.0736 72.2404C94.8428 72.1265 94.5673 72.0696 94.2473 72.0696H92.5715V74.581ZM92.5715 70.717H94.0534C94.3273 70.717 94.5704 70.6693 94.7828 70.5739C94.9982 70.4754 95.1675 70.3369 95.2906 70.1584C95.4168 69.9799 95.4799 69.766 95.4799 69.5167C95.4799 69.1751 95.3583 68.8996 95.1152 68.6904C94.8751 68.4811 94.5335 68.3764 94.0903 68.3764H92.5715V70.717ZM107.855 71.4879C107.855 72.519 107.66 73.3961 107.269 74.1193C106.881 74.8426 106.352 75.395 105.681 75.7766C105.013 76.1552 104.262 76.3445 103.428 76.3445C102.588 76.3445 101.834 76.1537 101.166 75.772C100.498 75.3904 99.9705 74.838 99.5828 74.1147C99.195 73.3915 99.0011 72.5159 99.0011 71.4879C99.0011 70.4569 99.195 69.5798 99.5828 68.8565C99.9705 68.1333 100.498 67.5824 101.166 67.2038C101.834 66.8222 102.588 66.6314 103.428 66.6314C104.262 66.6314 105.013 66.8222 105.681 67.2038C106.352 67.5824 106.881 68.1333 107.269 68.8565C107.66 69.5798 107.855 70.4569 107.855 71.4879ZM105.829 71.4879C105.829 70.8201 105.729 70.2569 105.529 69.7983C105.332 69.3397 105.053 68.992 104.693 68.755C104.333 68.518 103.911 68.3995 103.428 68.3995C102.945 68.3995 102.523 68.518 102.163 68.755C101.803 68.992 101.523 69.3397 101.323 69.7983C101.126 70.2569 101.028 70.8201 101.028 71.4879C101.028 72.1558 101.126 72.719 101.323 73.1776C101.523 73.6361 101.803 73.9839 102.163 74.2209C102.523 74.4579 102.945 74.5764 103.428 74.5764C103.911 74.5764 104.333 74.4579 104.693 74.2209C105.053 73.9839 105.332 73.6361 105.529 73.1776C105.729 72.719 105.829 72.1558 105.829 71.4879ZM109.336 76.2152V66.7607H113.066C113.78 66.7607 114.39 66.8884 114.894 67.1438C115.402 67.3962 115.789 67.7547 116.053 68.2195C116.321 68.6811 116.455 69.2243 116.455 69.8491C116.455 70.4769 116.319 71.0171 116.049 71.4695C115.778 71.9188 115.385 72.2635 114.871 72.5036C114.36 72.7436 113.742 72.8636 113.016 72.8636H110.518V71.2571H112.692C113.074 71.2571 113.391 71.2048 113.643 71.1002C113.896 70.9955 114.084 70.8386 114.207 70.6293C114.333 70.42 114.396 70.1599 114.396 69.8491C114.396 69.5352 114.333 69.2705 114.207 69.0551C114.084 68.8396 113.894 68.6765 113.639 68.5657C113.386 68.4518 113.068 68.3949 112.683 68.3949H111.335V76.2152H109.336ZM114.442 71.9127L116.792 76.2152H114.585L112.286 71.9127H114.442Z" fill="#7AE67D"/>
</svg>
    