<svg width="89" height="89" viewBox="0 0 89 89" fill="none"
    xmlns="http://www.w3.org/2000/svg">
    <circle cx="44.5" cy="44.5" r="44.5" fill="#D9D9D9"/>
    <path d="M44.5 14.0834C41.4921 14.0834 38.5517 14.9753 36.0507 16.6464C33.5497 18.3176 31.6004 20.6928 30.4493 23.4717C29.2982 26.2507 28.9971 29.3086 29.5839 32.2587C30.1707 35.2088 31.6192 37.9187 33.7461 40.0456C35.873 42.1725 38.5829 43.621 41.533 44.2078C44.4831 44.7946 47.541 44.4935 50.32 43.3424C53.0989 42.1913 55.4742 40.242 57.1453 37.741C58.8164 35.24 59.7083 32.2996 59.7083 29.2917C59.7083 25.2582 58.106 21.3899 55.2539 18.5378C52.4018 15.6857 48.5335 14.0834 44.5 14.0834ZM44.5 38.4167C42.6952 38.4167 40.931 37.8815 39.4304 36.8789C37.9298 35.8762 36.7602 34.4511 36.0696 32.7837C35.379 31.1163 35.1982 29.2816 35.5503 27.5115C35.9024 25.7414 36.7715 24.1155 38.0476 22.8394C39.3238 21.5632 40.9497 20.6941 42.7198 20.342C44.4899 19.99 46.3246 20.1707 47.992 20.8613C49.6594 21.552 51.0845 22.7215 52.0872 24.2221C53.0898 25.7227 53.625 27.487 53.625 29.2917C53.625 31.7118 52.6636 34.0328 50.9524 35.7441C49.2411 37.4553 46.9201 38.4167 44.5 38.4167ZM71.875 71.875V68.8334C71.875 63.1865 69.6318 57.7709 65.6388 53.7779C61.6459 49.7849 56.2302 47.5417 50.5833 47.5417H38.4167C32.7698 47.5417 27.3541 49.7849 23.3612 53.7779C19.3682 57.7709 17.125 63.1865 17.125 68.8334V71.875H23.2083V68.8334C23.2083 64.7999 24.8106 60.9316 27.6628 58.0795C30.5149 55.2273 34.3832 53.625 38.4167 53.625H50.5833C54.6168 53.625 58.4851 55.2273 61.3372 58.0795C64.1894 60.9316 65.7917 64.7999 65.7917 68.8334V71.875H71.875Z" fill="black"/>
</svg>
    