<svg width="57" height="57" viewBox="0 0 57 57" fill="none"
  xmlns="http://www.w3.org/2000/svg">
  <circle cx="28.5" cy="28.5" r="28.5" fill="#D9D9D9" />
  <path d="M28.5 9.01965C26.5736 9.01965 24.6904 9.5909 23.0887 10.6612C21.4869 11.7314 20.2385 13.2526 19.5013 15.0324C18.764 16.8122 18.5712 18.7706 18.947 20.66C19.3228 22.5494 20.2505 24.285 21.6127 25.6472C22.9748 27.0093 24.7104 27.937 26.5998 28.3128C28.4892 28.6887 30.4476 28.4958 32.2274 27.7586C34.0072 27.0214 35.5284 25.7729 36.5987 24.1712C37.6689 22.5694 38.2402 20.6862 38.2402 18.7598C38.2402 16.1766 37.214 13.6991 35.3873 11.8725C33.5607 10.0458 31.0833 9.01965 28.5 9.01965ZM28.5 24.6039C27.3441 24.6039 26.2142 24.2612 25.2532 23.619C24.2921 22.9769 23.5431 22.0641 23.1008 20.9963C22.6584 19.9284 22.5427 18.7533 22.7682 17.6197C22.9937 16.4861 23.5503 15.4447 24.3676 14.6274C25.1849 13.8101 26.2262 13.2535 27.3599 13.028C28.4935 12.8025 29.6686 12.9183 30.7364 13.3606C31.8043 13.8029 32.717 14.552 33.3592 15.513C34.0014 16.4741 34.3441 17.604 34.3441 18.7598C34.3441 20.3098 33.7284 21.7962 32.6324 22.8922C31.5364 23.9882 30.05 24.6039 28.5 24.6039ZM46.0323 46.0323V44.0843C46.0323 40.4677 44.5956 36.9993 42.0383 34.442C39.4811 31.8847 36.0126 30.448 32.3961 30.448H24.6039C20.9874 30.448 17.5189 31.8847 14.9617 34.442C12.4044 36.9993 10.9677 40.4677 10.9677 44.0843V46.0323H14.8638V44.0843C14.8638 41.501 15.89 39.0236 17.7166 37.1969C19.5432 35.3703 22.0207 34.3441 24.6039 34.3441H32.3961C34.9793 34.3441 37.4568 35.3703 39.2834 37.1969C41.11 39.0236 42.1362 41.501 42.1362 44.0843V46.0323H46.0323Z" fill="black" />
</svg>
